/* XPM */
static char * C:\Users\Digistar\JJF\Projects\digistar_mode\images\digistar_play_xpm[] = {
"24 24 31 1",
" 	c None",
".	c #4BD02C",
"+	c #54CF2C",
"@	c #3C952C",
"#	c #55DA2C",
"$	c #67DA2C",
"%	c #61D92C",
"&	c #51B92C",
"*	c #59D32C",
"=	c #3D9F2C",
"-	c #64DA2C",
";	c #4BC12C",
">	c #38822C",
",	c #5DD82C",
"'	c #40A82C",
")	c #65DA2C",
"!	c #51C32C",
"~	c #67D92C",
"{	c #61BF2C",
"]	c #67D42C",
"^	c #51A32C",
"/	c #67D82C",
"(	c #5EBB2C",
"_	c #3F7F2C",
":	c #65CE2C",
"<	c #4D9B2C",
"[	c #67D72C",
"}	c #5BB42C",
"|	c #4FC62C",
"1	c #64CA2C",
"2	c #48922C",
"                        ",
"                        ",
"                        ",
"                        ",
"                        ",
"                        ",
"        .+@             ",
"        #$%&            ",
"        #$$$*=          ",
"        #$$$$-;>        ",
"        #$$$$$$,'       ",
"        #$$$$$$$)!      ",
"        #$$$$$$$~{      ",
"        #$$$$$$]^       ",
"        #$$$$/(_        ",
"        #$$$:<          ",
"        #$[}            ",
"        |12             ",
"                        ",
"                        ",
"                        ",
"                        ",
"                        ",
"                        "};
